<?xml version="1.0" encoding="UTF-8" standalone="no"?>
<!-- Created with Inkscape (http://www.inkscape.org/) -->

<svg
   xmlns:dc="http://purl.org/dc/elements/1.1/"
   xmlns:cc="http://creativecommons.org/ns#"
   xmlns:rdf="http://www.w3.org/1999/02/22-rdf-syntax-ns#"
   xmlns:svg="http://www.w3.org/2000/svg"
   xmlns="http://www.w3.org/2000/svg"
   xmlns:sodipodi="http://sodipodi.sourceforge.net/DTD/sodipodi-0.dtd"
   xmlns:inkscape="http://www.inkscape.org/namespaces/inkscape"
   width="1280"
   height="720"
   viewBox="0 0 1280 720.00001"
   id="svg2"
   version="1.1"
   inkscape:version="0.91 r13725"
   sodipodi:docname="brand.svg">
  <defs
     id="defs4" />
  <sodipodi:namedview
     id="base"
     pagecolor="#ffffff"
     bordercolor="#666666"
     borderopacity="1.0"
     inkscape:pageopacity="0.0"
     inkscape:pageshadow="2"
     inkscape:zoom="0.5"
     inkscape:cx="650.9577"
     inkscape:cy="354.70538"
     inkscape:document-units="px"
     inkscape:current-layer="layer1"
     showgrid="false"
     units="px"
     inkscape:snap-text-baseline="true"
     inkscape:window-width="1366"
     inkscape:window-height="706"
     inkscape:window-x="-8"
     inkscape:window-y="-8"
     inkscape:window-maximized="1" />
  <metadata
     id="metadata7">
    <rdf:RDF>
      <cc:Work
         rdf:about="">
        <dc:format>image/svg+xml</dc:format>
        <dc:type
           rdf:resource="http://purl.org/dc/dcmitype/StillImage" />
        <dc:title></dc:title>
      </cc:Work>
    </rdf:RDF>
  </metadata>
  <g
     inkscape:label="Capa 1"
     inkscape:groupmode="layer"
     id="layer1"
     transform="translate(0,-332.36216)">
    <g
       style="font-style:normal;font-weight:normal;font-size:102.5px;line-height:100%;font-family:sans-serif;letter-spacing:0px;word-spacing:0px;fill:#ffffff;fill-opacity:1;stroke:none;stroke-width:1px;stroke-linecap:butt;stroke-linejoin:miter;stroke-opacity:1"
       id="text4136">
      <path
         sodipodi:type="inkscape:offset"
         inkscape:radius="0"
         inkscape:original="M 701.61523 593.65625 C 681.64648 593.65625 668.05273 609.5 668.05273 627.59375 L 668.05273 627.78125 C 668.05273 645.875 681.45898 661.53125 701.42773 661.53125 C 721.39648 661.53125 734.99023 645.6875 734.99023 627.59375 L 734.99023 627.40625 C 734.99023 609.3125 721.58398 593.65625 701.61523 593.65625 z M 780.89062 593.65625 C 761.57812 593.65625 747.70312 609.03125 747.70312 627.59375 L 747.70312 627.78125 C 747.70312 646.625 761.67188 661.53125 780.60938 661.53125 C 792.51562 661.53125 800.01562 656.9375 806.85938 650 L 801.98438 645.21875 C 795.70312 651.21875 789.79688 654.6875 780.79688 654.6875 C 766.35938 654.6875 755.39062 642.78125 755.39062 627.59375 L 755.39062 627.40625 C 755.39062 612.3125 766.26562 600.5 780.79688 600.5 C 789.70312 600.5 795.89062 604.25 801.42188 609.5 L 806.48438 604.0625 C 799.92188 597.875 792.79688 593.65625 780.89062 593.65625 z M 1197.3047 593.84375 C 1184.836 593.84375 1175.7422 601.4375 1175.7422 611.75 L 1175.7422 611.9375 C 1175.7422 622.71875 1182.6796 627.59375 1197.7734 630.875 C 1211.5546 633.78125 1214.8359 637.25 1214.8359 643.34375 L 1214.8359 643.53125 C 1214.8359 650 1209.0234 654.6875 1200.2109 654.6875 C 1191.1171 654.6875 1184.5546 651.59375 1177.7109 645.40625 L 1173.1172 650.84375 C 1180.9922 657.875 1189.5235 661.34375 1199.9297 661.34375 C 1212.961 661.34375 1222.3359 654.03125 1222.3359 642.78125 L 1222.3359 642.59375 C 1222.3359 632.5625 1215.5859 627.21875 1200.9609 624.03125 C 1186.5234 620.9375 1183.1484 617.46875 1183.1484 611.28125 L 1183.1484 611.09375 C 1183.1484 605.1875 1188.586 600.5 1197.1172 600.5 C 1203.8672 600.5 1209.961 602.65625 1216.0547 607.625 L 1220.3672 601.90625 C 1213.711 596.5625 1206.8672 593.84375 1197.3047 593.84375 z M 844.10547 594.3125 L 814.19922 660.40625 L 821.79297 660.40625 L 829.57422 643.0625 L 865.29297 643.0625 L 872.98047 660.40625 L 880.94922 660.40625 L 851.04297 594.3125 L 844.10547 594.3125 z M 411.13281 594.78125 L 411.13281 660.40625 L 418.53906 660.40625 L 418.53906 631.8125 L 454.07031 631.8125 L 454.07031 625.0625 L 418.53906 625.0625 L 418.53906 601.625 L 458.28906 601.625 L 458.28906 594.78125 L 411.13281 594.78125 z M 472.65625 594.78125 L 472.65625 660.40625 L 520.5625 660.40625 L 520.5625 653.65625 L 480.0625 653.65625 L 480.0625 630.6875 L 515.875 630.6875 L 515.875 623.9375 L 480.0625 623.9375 L 480.0625 601.53125 L 520.09375 601.53125 L 520.09375 594.78125 L 472.65625 594.78125 z M 535.46094 594.78125 L 535.46094 660.40625 L 542.86719 660.40625 L 542.86719 634.90625 L 561.61719 634.90625 L 580.64844 660.40625 L 589.74219 660.40625 L 569.58594 633.59375 C 579.89844 631.71875 587.39844 625.34375 587.39844 614.46875 L 587.39844 614.28125 C 587.39844 609.125 585.52344 604.53125 582.33594 601.34375 C 578.21094 597.21875 571.74219 594.78125 563.67969 594.78125 L 535.46094 594.78125 z M 603.21094 594.78125 L 603.21094 660.40625 L 610.61719 660.40625 L 610.61719 634.90625 L 629.36719 634.90625 L 648.39844 660.40625 L 657.49219 660.40625 L 637.33594 633.59375 C 647.64844 631.71875 655.14844 625.34375 655.14844 614.46875 L 655.14844 614.28125 C 655.14844 609.125 653.27344 604.53125 650.08594 601.34375 C 645.96094 597.21875 639.49219 594.78125 631.42969 594.78125 L 603.21094 594.78125 z M 893.79883 594.78125 L 893.79883 660.40625 L 901.20508 660.40625 L 901.20508 634.90625 L 919.95508 634.90625 L 938.98633 660.40625 L 948.08008 660.40625 L 927.92383 633.59375 C 938.23633 631.71875 945.73633 625.34375 945.73633 614.46875 L 945.73633 614.28125 C 945.73633 609.125 943.86133 604.53125 940.67383 601.34375 C 936.54883 597.21875 930.08008 594.78125 922.01758 594.78125 L 893.79883 594.78125 z M 961.54688 594.78125 L 961.54688 660.40625 L 968.95312 660.40625 L 968.95312 634.90625 L 987.70312 634.90625 L 1006.7344 660.40625 L 1015.8281 660.40625 L 995.67188 633.59375 C 1005.9844 631.71875 1013.4844 625.34375 1013.4844 614.46875 L 1013.4844 614.28125 C 1013.4844 609.125 1011.6094 604.53125 1008.4219 601.34375 C 1004.2969 597.21875 997.82812 594.78125 989.76562 594.78125 L 961.54688 594.78125 z M 1029.9531 594.78125 L 1029.9531 660.40625 L 1037.3594 660.40625 L 1037.3594 594.78125 L 1029.9531 594.78125 z M 1056.5801 594.78125 L 1056.5801 660.40625 L 1100.9238 660.40625 L 1100.9238 653.5625 L 1063.9863 653.5625 L 1063.9863 594.78125 L 1056.5801 594.78125 z M 1114.623 594.78125 L 1114.623 660.40625 L 1162.5293 660.40625 L 1162.5293 653.65625 L 1122.0293 653.65625 L 1122.0293 630.6875 L 1157.8418 630.6875 L 1157.8418 623.9375 L 1122.0293 623.9375 L 1122.0293 601.53125 L 1162.0605 601.53125 L 1162.0605 594.78125 L 1114.623 594.78125 z M 701.42773 600.5 C 716.42773 600.5 727.30273 612.6875 727.30273 627.59375 L 727.30273 627.78125 C 727.30273 642.6875 716.61523 654.6875 701.61523 654.6875 C 686.61523 654.6875 675.74023 642.5 675.74023 627.59375 L 675.74023 627.40625 C 675.74023 612.5 686.42773 600.5 701.42773 600.5 z M 542.86719 601.625 L 563.11719 601.625 C 573.71094 601.625 579.89844 606.5 579.89844 614.5625 L 579.89844 614.75 C 579.89844 623.1875 572.86719 628.25 563.02344 628.25 L 542.86719 628.25 L 542.86719 601.625 z M 610.61719 601.625 L 630.86719 601.625 C 641.46094 601.625 647.64844 606.5 647.64844 614.5625 L 647.64844 614.75 C 647.64844 623.1875 640.61719 628.25 630.77344 628.25 L 610.61719 628.25 L 610.61719 601.625 z M 901.20508 601.625 L 921.45508 601.625 C 932.04883 601.625 938.23633 606.5 938.23633 614.5625 L 938.23633 614.75 C 938.23633 623.1875 931.20508 628.25 921.36133 628.25 L 901.20508 628.25 L 901.20508 601.625 z M 968.95312 601.625 L 989.20312 601.625 C 999.79688 601.625 1005.9844 606.5 1005.9844 614.5625 L 1005.9844 614.75 C 1005.9844 623.1875 998.95312 628.25 989.10938 628.25 L 968.95312 628.25 L 968.95312 601.625 z M 847.48047 602.9375 L 862.38672 636.3125 L 832.48047 636.3125 L 847.48047 602.9375 z M 1063.7812 684.32031 C 1030.3012 684.32031 1005.1914 709.58523 1005.1914 740.74023 L 1005.1914 741.04883 C 1005.1914 772.20383 1029.9907 797.16016 1063.4707 797.16016 C 1096.9507 797.16016 1122.0605 771.89523 1122.0605 740.74023 L 1122.0605 740.42969 C 1122.0605 709.27469 1097.2613 684.32031 1063.7812 684.32031 z M 1175.416 684.62891 C 1149.376 684.62891 1133.4102 699.19961 1133.4102 719.34961 L 1133.4102 719.66016 C 1133.4102 741.82516 1151.2351 748.33352 1174.3301 753.60352 C 1189.2101 757.16852 1192.7754 759.49453 1192.7754 764.14453 L 1192.7754 764.45508 C 1192.7754 769.10508 1188.4357 771.89453 1180.2207 771.89453 C 1167.6657 771.89453 1155.8852 767.4 1145.0352 758.875 L 1128.2949 778.86914 C 1141.7799 790.80414 1159.9148 796.84961 1179.1348 796.84961 C 1205.4848 796.84961 1223 783.67477 1223 761.50977 L 1223 761.19922 C 1223 740.89422 1207.5012 732.83516 1182.7012 727.41016 C 1167.5112 724.00016 1163.791 721.82914 1163.791 716.86914 L 1163.791 716.55859 C 1163.791 712.52859 1167.3556 709.58398 1174.6406 709.58398 C 1184.2506 709.58398 1195.0995 713.1493 1205.0195 720.2793 L 1220.0547 699.04492 C 1208.2747 689.58992 1193.861 684.62891 1175.416 684.62891 z M 448.9707 685.71484 L 402.93555 794.99023 L 434.40234 794.99023 L 442.15234 775.45898 L 484.15625 775.45898 L 491.90625 794.99023 L 524.14648 794.99023 L 477.95703 685.71484 L 448.9707 685.71484 z M 534.67383 686.49023 L 534.67383 794.99023 L 590.62891 794.99023 C 616.51391 794.99023 631.70508 783.67422 631.70508 765.07422 L 631.70508 764.76367 C 631.70508 750.03867 623.33516 742.59977 610.16016 738.25977 C 619.77016 734.07477 626.89844 726.63508 626.89844 714.08008 L 626.89844 713.76953 C 626.89844 706.32953 624.26383 700.59461 619.92383 696.09961 C 613.56883 689.89961 603.95836 686.49023 590.31836 686.49023 L 534.67383 686.49023 z M 646.25 686.49023 L 646.25 794.99023 L 676.32031 794.99023 L 676.32031 686.49023 L 646.25 686.49023 z M 696.03125 686.49023 L 696.03125 794.99023 L 784.07227 794.99023 L 784.07227 769.41406 L 725.79102 769.41406 L 725.79102 752.20898 L 777.87109 752.20898 L 777.87109 728.49414 L 725.79102 728.49414 L 725.79102 711.91016 L 783.29688 711.91016 L 783.29688 686.49023 L 696.03125 686.49023 z M 799.56641 686.49023 L 799.56641 794.99023 L 829.63672 794.99023 L 829.63672 762.12891 L 842.9668 762.12891 L 864.82227 794.99023 L 899.38672 794.99023 L 873.50195 757.16992 C 886.98695 751.43492 895.82227 740.42945 895.82227 723.68945 L 895.82227 723.37891 C 895.82227 712.68391 892.56594 704.47023 886.21094 698.11523 C 878.92594 690.83023 867.45609 686.49023 850.87109 686.49023 L 799.56641 686.49023 z M 905.08398 686.49023 L 905.08398 712.83984 L 937.47852 712.83984 L 937.47852 794.99023 L 967.54883 794.99023 L 967.54883 712.83984 L 1000.0977 712.83984 L 1000.0977 686.49023 L 905.08398 686.49023 z M 563.96875 710.66992 L 583.6543 710.66992 C 592.4893 710.66992 597.29492 713.92375 597.29492 719.96875 L 597.29492 720.2793 C 597.29492 726.6343 592.02391 729.73438 582.87891 729.73438 L 563.96875 729.73438 L 563.96875 710.66992 z M 1063.4707 711.44531 C 1080.0557 711.44531 1091.2168 724.93023 1091.2168 740.74023 L 1091.2168 741.04883 C 1091.2168 756.70383 1080.2112 770.03516 1063.7812 770.03516 C 1047.1962 770.03516 1035.8809 756.39523 1035.8809 740.74023 L 1035.8809 740.42969 C 1035.8809 724.77469 1046.8857 711.44531 1063.4707 711.44531 z M 829.63672 712.375 L 849.47656 712.375 C 859.39656 712.375 865.75195 716.71453 865.75195 725.39453 L 865.75195 725.70508 C 865.75195 733.61008 859.70781 738.57031 849.63281 738.57031 L 829.63672 738.57031 L 829.63672 712.375 z M 463.23047 721.36523 L 475.32227 752.05469 L 450.98633 752.05469 L 463.23047 721.36523 z M 563.96875 750.81445 L 586.91016 750.81445 C 596.98516 750.81445 601.63477 754.69008 601.63477 760.58008 L 601.63477 760.88867 C 601.63477 767.24367 596.51875 770.80859 587.21875 770.80859 L 563.96875 770.80859 L 563.96875 750.81445 z "
         style="font-style:normal;font-variant:normal;font-weight:500;font-stretch:normal;font-size:155px;line-height:100%;font-family:Gotham;-inkscape-font-specification:'Gotham Medium';fill:#ffffff"
         id="path4865"
         d="m 701.61523,593.65625 c -19.96875,0 -33.5625,15.84375 -33.5625,33.9375 l 0,0.1875 c 0,18.09375 13.40625,33.75 33.375,33.75 19.96875,0 33.5625,-15.84375 33.5625,-33.9375 l 0,-0.1875 c 0,-18.09375 -13.40625,-33.75 -33.375,-33.75 z m 79.27539,0 c -19.3125,0 -33.1875,15.375 -33.1875,33.9375 l 0,0.1875 c 0,18.84375 13.96876,33.75 32.90626,33.75 11.90624,0 19.40624,-4.59375 26.25,-11.53125 l -4.875,-4.78125 c -6.28126,6 -12.1875,9.46875 -21.1875,9.46875 -14.4375,0 -25.40626,-11.90625 -25.40626,-27.09375 l 0,-0.1875 c 0,-15.09375 10.875,-26.90625 25.40626,-26.90625 8.90624,0 15.09374,3.75 20.625,9 l 5.0625,-5.4375 c -6.5625,-6.1875 -13.6875,-10.40625 -25.59376,-10.40625 z m 416.41408,0.1875 c -12.4687,0 -21.5625,7.59375 -21.5625,17.90625 l 0,0.1875 c 0,10.78125 6.9374,15.65625 22.0312,18.9375 13.7812,2.90625 17.0625,6.375 17.0625,12.46875 l 0,0.1875 c 0,6.46875 -5.8125,11.15625 -14.625,11.15625 -9.0938,0 -15.6563,-3.09375 -22.5,-9.28125 l -4.5937,5.4375 c 7.875,7.03125 16.4063,10.5 26.8125,10.5 13.0313,0 22.4062,-7.3125 22.4062,-18.5625 l 0,-0.1875 c 0,-10.03125 -6.75,-15.375 -21.375,-18.5625 -14.4375,-3.09375 -17.8125,-6.5625 -17.8125,-12.75 l 0,-0.1875 c 0,-5.90625 5.4376,-10.59375 13.9688,-10.59375 6.75,0 12.8438,2.15625 18.9375,7.125 l 4.3125,-5.71875 c -6.6562,-5.34375 -13.5,-8.0625 -23.0625,-8.0625 z m -353.19923,0.46875 -29.90625,66.09375 7.59375,0 7.78125,-17.34375 35.71875,0 7.6875,17.34375 7.96875,0 -29.90625,-66.09375 -6.9375,0 z m -432.97266,0.46875 0,65.625 7.40625,0 0,-28.59375 35.53125,0 0,-6.75 -35.53125,0 0,-23.4375 39.75,0 0,-6.84375 -47.15625,0 z m 61.52344,0 0,65.625 47.90625,0 0,-6.75 -40.5,0 0,-22.96875 35.8125,0 0,-6.75 -35.8125,0 0,-22.40625 40.03125,0 0,-6.75 -47.4375,0 z m 62.80469,0 0,65.625 7.40625,0 0,-25.5 18.75,0 19.03125,25.5 9.09375,0 -20.15625,-26.8125 c 10.3125,-1.875 17.8125,-8.25 17.8125,-19.125 l 0,-0.1875 c 0,-5.15625 -1.875,-9.75 -5.0625,-12.9375 -4.125,-4.125 -10.59375,-6.5625 -18.65625,-6.5625 l -28.21875,0 z m 67.75,0 0,65.625 7.40625,0 0,-25.5 18.75,0 19.03125,25.5 9.09375,0 -20.15625,-26.8125 c 10.3125,-1.875 17.8125,-8.25 17.8125,-19.125 l 0,-0.1875 c 0,-5.15625 -1.875,-9.75 -5.0625,-12.9375 -4.125,-4.125 -10.59375,-6.5625 -18.65625,-6.5625 l -28.21875,0 z m 290.58789,0 0,65.625 7.40625,0 0,-25.5 18.75,0 19.03125,25.5 9.09375,0 -20.15625,-26.8125 c 10.3125,-1.875 17.8125,-8.25 17.8125,-19.125 l 0,-0.1875 c 0,-5.15625 -1.875,-9.75 -5.0625,-12.9375 -4.125,-4.125 -10.59375,-6.5625 -18.65625,-6.5625 l -28.21875,0 z m 67.74805,0 0,65.625 7.40624,0 0,-25.5 18.75,0 19.03128,25.5 9.0937,0 -20.15622,-26.8125 c 10.31252,-1.875 17.81252,-8.25 17.81252,-19.125 l 0,-0.1875 c 0,-5.15625 -1.875,-9.75 -5.0625,-12.9375 -4.125,-4.125 -10.59378,-6.5625 -18.65628,-6.5625 l -28.21874,0 z m 68.40622,0 0,65.625 7.4063,0 0,-65.625 -7.4063,0 z m 26.627,0 0,65.625 44.3437,0 0,-6.84375 -36.9375,0 0,-58.78125 -7.4062,0 z m 58.0429,0 0,65.625 47.9063,0 0,-6.75 -40.5,0 0,-22.96875 35.8125,0 0,-6.75 -35.8125,0 0,-22.40625 40.0312,0 0,-6.75 -47.4375,0 z M 701.42773,600.5 c 15,0 25.875,12.1875 25.875,27.09375 l 0,0.1875 c 0,14.90625 -10.6875,26.90625 -25.6875,26.90625 -15,0 -25.875,-12.1875 -25.875,-27.09375 l 0,-0.1875 c 0,-14.90625 10.6875,-26.90625 25.6875,-26.90625 z m -158.56054,1.125 20.25,0 c 10.59375,0 16.78125,4.875 16.78125,12.9375 l 0,0.1875 c 0,8.4375 -7.03125,13.5 -16.875,13.5 l -20.15625,0 0,-26.625 z m 67.75,0 20.25,0 c 10.59375,0 16.78125,4.875 16.78125,12.9375 l 0,0.1875 c 0,8.4375 -7.03125,13.5 -16.875,13.5 l -20.15625,0 0,-26.625 z m 290.58789,0 20.25,0 c 10.59375,0 16.78125,4.875 16.78125,12.9375 l 0,0.1875 c 0,8.4375 -7.03125,13.5 -16.875,13.5 l -20.15625,0 0,-26.625 z m 67.74804,0 20.25,0 c 10.59376,0 16.78128,4.875 16.78128,12.9375 l 0,0.1875 c 0,8.4375 -7.03128,13.5 -16.87502,13.5 l -20.15626,0 0,-26.625 z m -121.47265,1.3125 14.90625,33.375 -29.90625,0 15,-33.375 z m 216.30073,81.38281 c -33.48,0 -58.5898,25.26492 -58.5898,56.41992 l 0,0.3086 c 0,31.155 24.7993,56.11133 58.2793,56.11133 33.48,0 58.5898,-25.26493 58.5898,-56.41993 l 0,-0.31054 c 0,-31.155 -24.7992,-56.10938 -58.2793,-56.10938 z m 111.6348,0.3086 c -26.04,0 -42.0058,14.5707 -42.0058,34.7207 l 0,0.31055 c 0,22.165 17.8249,28.67336 40.9199,33.94336 14.88,3.565 18.4453,5.89101 18.4453,10.54101 l 0,0.31055 c 0,4.65 -4.3397,7.43945 -12.5547,7.43945 -12.555,0 -24.3355,-4.49453 -35.1855,-13.01953 l -16.7403,19.99414 c 13.485,11.935 31.6199,17.98047 50.8399,17.98047 26.35,0 43.8652,-13.17484 43.8652,-35.33984 l 0,-0.31055 c 0,-20.305 -15.4988,-28.36406 -40.2988,-33.78906 -15.19,-3.41 -18.9102,-5.58102 -18.9102,-10.54102 l 0,-0.31055 c 0,-4.03 3.5646,-6.97461 10.8496,-6.97461 9.61,0 20.4589,3.56532 30.3789,10.69532 l 15.0352,-21.23438 c -11.78,-9.455 -26.1937,-14.41601 -44.6387,-14.41601 z m -726.4453,1.08593 -46.03515,109.27539 31.46679,0 7.75,-19.53125 42.00391,0 7.75,19.53125 32.24023,0 -46.18945,-109.27539 -28.98633,0 z m 85.70313,0.77539 0,108.5 55.95508,0 c 25.885,0 41.07617,-11.31601 41.07617,-29.91601 l 0,-0.31055 c 0,-14.725 -8.36992,-22.1639 -21.54492,-26.5039 9.61,-4.185 16.73828,-11.62469 16.73828,-24.17969 l 0,-0.31055 c 0,-7.44 -2.63461,-13.17492 -6.97461,-17.66992 -6.355,-6.2 -15.96547,-9.60938 -29.60547,-9.60938 l -55.64453,0 z m 111.57617,0 0,108.5 30.07031,0 0,-108.5 -30.07031,0 z m 49.78125,0 0,108.5 88.04102,0 0,-25.57617 -58.28125,0 0,-17.20508 52.08007,0 0,-23.71484 -52.08007,0 0,-16.58398 57.50586,0 0,-25.41993 -87.26563,0 z m 103.53516,0 0,108.5 30.07031,0 0,-32.86132 13.33008,0 21.85547,32.86132 34.56445,0 -25.88477,-37.82031 c 13.485,-5.735 22.32032,-16.74047 22.32032,-33.48047 l 0,-0.31054 c 0,-10.695 -3.25633,-18.90868 -9.61133,-25.26368 -7.285,-7.285 -18.75485,-11.625 -35.33985,-11.625 l -51.30468,0 z m 105.51757,0 0,26.34961 32.39454,0 0,82.15039 30.07031,0 0,-82.15039 32.54887,0 0,-26.34961 -95.01372,0 z m -341.11523,24.17969 19.68555,0 c 8.835,0 13.64062,3.25383 13.64062,9.29883 l 0,0.31055 c 0,6.355 -5.27101,9.45508 -14.41601,9.45508 l -18.91016,0 0,-19.06446 z m 499.50195,0.77539 c 16.585,0 27.7461,13.48492 27.7461,29.29492 l 0,0.3086 c 0,15.655 -11.0056,28.98633 -27.4356,28.98633 -16.585,0 -27.9003,-13.63993 -27.9003,-29.29493 l 0,-0.31054 c 0,-15.655 11.0048,-28.98438 27.5898,-28.98438 z m -233.83398,0.92969 19.83984,0 c 9.92,0 16.27539,4.33953 16.27539,13.01953 l 0,0.31055 c 0,7.905 -6.04414,12.86523 -16.11914,12.86523 l -19.99609,0 0,-26.19531 z m -366.40625,8.99023 12.0918,30.68946 -24.33594,0 12.24414,-30.68946 z m 100.73828,29.44922 22.94141,0 c 10.075,0 14.72461,3.87563 14.72461,9.76563 l 0,0.30859 c 0,6.355 -5.11602,9.91992 -14.41602,9.91992 l -23.25,0 0,-19.99414 z" />
    </g>
    <rect
       style="color:#000000;clip-rule:nonzero;display:inline;overflow:visible;visibility:visible;opacity:1;isolation:auto;mix-blend-mode:normal;color-interpolation:sRGB;color-interpolation-filters:linearRGB;solid-color:#000000;solid-opacity:1;fill:#ffffff;fill-opacity:0;fill-rule:nonzero;stroke:#ffffff;stroke-width:10;stroke-linecap:butt;stroke-linejoin:miter;stroke-miterlimit:4;stroke-dasharray:none;stroke-dashoffset:0;stroke-opacity:1;color-rendering:auto;image-rendering:auto;shape-rendering:auto;text-rendering:auto;enable-background:accumulate"
       id="rect4142"
       width="275"
       height="275"
       x="84"
       y="556.36218"
       ry="25" />
    <rect
       style="color:#000000;clip-rule:nonzero;display:inline;overflow:visible;visibility:visible;opacity:1;isolation:auto;mix-blend-mode:normal;color-interpolation:sRGB;color-interpolation-filters:linearRGB;solid-color:#000000;solid-opacity:1;fill:#ffffff;fill-opacity:0;fill-rule:nonzero;stroke:#ffffff;stroke-width:10;stroke-linecap:butt;stroke-linejoin:miter;stroke-miterlimit:4;stroke-dasharray:none;stroke-dashoffset:0;stroke-opacity:1;color-rendering:auto;image-rendering:auto;shape-rendering:auto;text-rendering:auto;enable-background:accumulate"
       id="rect4144"
       width="150"
       height="200"
       x="146"
       y="592.36218"
       ry="5" />
    <rect
       style="color:#000000;clip-rule:nonzero;display:inline;overflow:visible;visibility:visible;opacity:1;isolation:auto;mix-blend-mode:normal;color-interpolation:sRGB;color-interpolation-filters:linearRGB;solid-color:#000000;solid-opacity:1;fill:#ffffff;fill-opacity:0;fill-rule:nonzero;stroke:#ffffff;stroke-width:3.79323506;stroke-linecap:butt;stroke-linejoin:miter;stroke-miterlimit:4;stroke-dasharray:none;stroke-dashoffset:0;stroke-opacity:1;color-rendering:auto;image-rendering:auto;shape-rendering:auto;text-rendering:auto;enable-background:accumulate"
       id="rect4146"
       width="28.349623"
       height="81.206764"
       x="146.25375"
       y="609.75879"
       ry="5.0754228" />
    <rect
       style="color:#000000;clip-rule:nonzero;display:inline;overflow:visible;visibility:visible;opacity:1;isolation:auto;mix-blend-mode:normal;color-interpolation:sRGB;color-interpolation-filters:linearRGB;solid-color:#000000;solid-opacity:1;fill:#ffffff;fill-opacity:0;fill-rule:nonzero;stroke:#ffffff;stroke-width:3.82813787;stroke-linecap:butt;stroke-linejoin:miter;stroke-miterlimit:4;stroke-dasharray:none;stroke-dashoffset:0;stroke-opacity:1;color-rendering:auto;image-rendering:auto;shape-rendering:auto;text-rendering:auto;enable-background:accumulate"
       id="rect4146-3"
       width="28.886148"
       height="81.17186"
       x="266.41406"
       y="609.77625"
       ry="5.0732412" />
    <rect
       style="color:#000000;clip-rule:nonzero;display:inline;overflow:visible;visibility:visible;opacity:1;isolation:auto;mix-blend-mode:normal;color-interpolation:sRGB;color-interpolation-filters:linearRGB;solid-color:#000000;solid-opacity:1;fill:#ffffff;fill-opacity:0;fill-rule:nonzero;stroke:#ffffff;stroke-width:2.65739655;stroke-linecap:butt;stroke-linejoin:miter;stroke-miterlimit:4;stroke-dasharray:none;stroke-dashoffset:0;stroke-opacity:1;color-rendering:auto;image-rendering:auto;shape-rendering:auto;text-rendering:auto;enable-background:accumulate"
       id="rect4163"
       width="1.7711749"
       height="202.34261"
       x="-258.52844"
       y="589.69086"
       ry="0.49838081"
       transform="scale(-1,1)" />
    <rect
       style="color:#000000;clip-rule:nonzero;display:inline;overflow:visible;visibility:visible;opacity:1;isolation:auto;mix-blend-mode:normal;color-interpolation:sRGB;color-interpolation-filters:linearRGB;solid-color:#000000;solid-opacity:1;fill:#ffffff;fill-opacity:0;fill-rule:nonzero;stroke:#ffffff;stroke-width:2.65739655;stroke-linecap:butt;stroke-linejoin:miter;stroke-miterlimit:4;stroke-dasharray:none;stroke-dashoffset:0;stroke-opacity:1;color-rendering:auto;image-rendering:auto;shape-rendering:auto;text-rendering:auto;enable-background:accumulate"
       id="rect4163-9"
       width="1.7711749"
       height="202.34261"
       x="-184.02846"
       y="592.33374"
       ry="0.49838081"
       transform="scale(-1,1)" />
    <rect
       style="color:#000000;clip-rule:nonzero;display:inline;overflow:visible;visibility:visible;opacity:1;isolation:auto;mix-blend-mode:normal;color-interpolation:sRGB;color-interpolation-filters:linearRGB;solid-color:#000000;solid-opacity:1;fill:#ffffff;fill-opacity:0;fill-rule:nonzero;stroke:#ffffff;stroke-width:5;stroke-linecap:butt;stroke-linejoin:miter;stroke-miterlimit:4;stroke-dasharray:none;stroke-dashoffset:0;stroke-opacity:1;color-rendering:auto;image-rendering:auto;shape-rendering:auto;text-rendering:auto;enable-background:accumulate"
       id="rect4146-3-7"
       width="31.709938"
       height="80.567078"
       x="327.57358"
       y="610.07861"
       ry="5.0354424" />
    <rect
       style="color:#000000;clip-rule:nonzero;display:inline;overflow:visible;visibility:visible;opacity:1;isolation:auto;mix-blend-mode:normal;color-interpolation:sRGB;color-interpolation-filters:linearRGB;solid-color:#000000;solid-opacity:1;fill:#ffffff;fill-opacity:0;fill-rule:nonzero;stroke:#ffffff;stroke-width:5;stroke-linecap:butt;stroke-linejoin:miter;stroke-miterlimit:4;stroke-dasharray:none;stroke-dashoffset:0;stroke-opacity:1;color-rendering:auto;image-rendering:auto;shape-rendering:auto;text-rendering:auto;enable-background:accumulate"
       id="rect4146-3-7-7"
       width="29.605698"
       height="80.748535"
       x="83.197144"
       y="609.70221"
       ry="5.0467834" />
    <rect
       style="color:#000000;clip-rule:nonzero;display:inline;overflow:visible;visibility:visible;opacity:1;isolation:auto;mix-blend-mode:normal;color-interpolation:sRGB;color-interpolation-filters:linearRGB;solid-color:#000000;solid-opacity:1;fill:#ffffff;fill-opacity:0;fill-rule:nonzero;stroke:#ffffff;stroke-width:5;stroke-linecap:butt;stroke-linejoin:miter;stroke-miterlimit:4;stroke-dasharray:none;stroke-dashoffset:0;stroke-opacity:1;color-rendering:auto;image-rendering:auto;shape-rendering:auto;text-rendering:auto;enable-background:accumulate"
       id="rect4210"
       width="50.285713"
       height="4"
       x="195.42857"
       y="694.36218"
       ry="2" />
    <rect
       style="color:#000000;clip-rule:nonzero;display:inline;overflow:visible;visibility:visible;opacity:1;isolation:auto;mix-blend-mode:normal;color-interpolation:sRGB;color-interpolation-filters:linearRGB;solid-color:#000000;solid-opacity:1;fill:#ffffff;fill-opacity:1;fill-rule:nonzero;stroke:#ffffff;stroke-width:3.50999999;stroke-linecap:butt;stroke-linejoin:miter;stroke-miterlimit:4;stroke-dasharray:none;stroke-dashoffset:0;stroke-opacity:1;color-rendering:auto;image-rendering:auto;shape-rendering:auto;text-rendering:auto;enable-background:accumulate"
       id="rect4210-9"
       width="18.061012"
       height="5.4895849"
       x="-333.74759"
       y="662.59564"
       ry="2.7447925"
       transform="matrix(0.70710678,-0.70710678,0.70710678,0.70710678,0,0)" />
    <rect
       style="color:#000000;clip-rule:nonzero;display:inline;overflow:visible;visibility:visible;opacity:1;isolation:auto;mix-blend-mode:normal;color-interpolation:sRGB;color-interpolation-filters:linearRGB;solid-color:#000000;solid-opacity:1;fill:#ffffff;fill-opacity:1;fill-rule:nonzero;stroke:#ffffff;stroke-width:3.50999999;stroke-linecap:butt;stroke-linejoin:miter;stroke-miterlimit:4;stroke-dasharray:none;stroke-dashoffset:0;stroke-opacity:1;color-rendering:auto;image-rendering:auto;shape-rendering:auto;text-rendering:auto;enable-background:accumulate"
       id="rect4210-9-0"
       width="18.061012"
       height="5.4895849"
       x="-668.10846"
       y="-321.19891"
       ry="2.7447925"
       transform="matrix(-0.70710678,-0.70710678,0.70710678,-0.70710678,0,0)" />
    <rect
       style="color:#000000;clip-rule:nonzero;display:inline;overflow:visible;visibility:visible;opacity:1;isolation:auto;mix-blend-mode:normal;color-interpolation:sRGB;color-interpolation-filters:linearRGB;solid-color:#000000;solid-opacity:1;fill:#ffffff;fill-opacity:1;fill-rule:nonzero;stroke:#ffffff;stroke-width:3.50999999;stroke-linecap:butt;stroke-linejoin:miter;stroke-miterlimit:4;stroke-dasharray:none;stroke-dashoffset:0;stroke-opacity:1;color-rendering:auto;image-rendering:auto;shape-rendering:auto;text-rendering:auto;enable-background:accumulate"
       id="rect4210-9-9"
       width="18.061012"
       height="5.4895849"
       x="-646.22144"
       y="350.6604"
       ry="2.7447925"
       transform="matrix(-0.70710678,-0.70710678,-0.70710678,0.70710678,0,0)" />
    <rect
       style="color:#000000;clip-rule:nonzero;display:inline;overflow:visible;visibility:visible;opacity:1;isolation:auto;mix-blend-mode:normal;color-interpolation:sRGB;color-interpolation-filters:linearRGB;solid-color:#000000;solid-opacity:1;fill:#ffffff;fill-opacity:1;fill-rule:nonzero;stroke:#ffffff;stroke-width:3.50999999;stroke-linecap:butt;stroke-linejoin:miter;stroke-miterlimit:4;stroke-dasharray:none;stroke-dashoffset:0;stroke-opacity:1;color-rendering:auto;image-rendering:auto;shape-rendering:auto;text-rendering:auto;enable-background:accumulate"
       id="rect4210-9-0-2"
       width="18.061012"
       height="5.4895849"
       x="-356.17322"
       y="-633.67279"
       ry="2.7447925"
       transform="matrix(0.70710678,-0.70710678,-0.70710678,-0.70710678,0,0)" />
  </g>
</svg>
